<svg xmlns="http://www.w3.org/2000/svg" viewBox="0 0 809.5 360.79"><defs><style>.a{fill:none;}</style></defs><title>Tasteful_Invite_Characters_final_exportv2</title><path class="a" d="M376.28,116.47A19.75,19.75,0,0,0,389.75,92l-5.51-19-9.49,2.75A9.88,9.88,0,0,0,368.57,81l5.95,20.52c.76,2.62-1.28,5.51-4.55,6.47s-6.55-.41-7.31-3,1.27-5.51,4.55-6.47a10,10,0,0,1,1.21-.25l-4.6-15.86a9.88,9.88,0,0,0-8.05-1.15L346.28,84l5.51,19A19.75,19.75,0,0,0,376.28,116.47Z" transform="translate(-4.97 -9.85)"/><rect x="190.9" y="327.12" width="84.18" height="33.67" rx="8.42"/><rect x="175.67" y="195.56" width="53.87" height="134.68" rx="13.47" transform="translate(-66.11 51.54) rotate(-15)"/><rect x="34.31" y="336.67" width="84.18" height="33.67" rx="8.42" transform="translate(-8.11 -9.16) rotate(-0.51)"/><rect x="43.6" y="235.35" width="134.68" height="53.87" rx="13.47" transform="translate(-175.73 294.22) rotate(-75.51)"/><path d="M229.52,114.75a74.08,74.08,0,1,0-74.07,74.07A74.07,74.07,0,0,0,229.52,114.75Zm-71.51,38s-40.42-17.19-40.42-51.56c0-9.49,9-17.18,20.21-17.18S158,91.72,158,101.21C158,91.72,167.06,84,178.22,84s20.21,7.69,20.21,17.18C198.43,135.58,158,152.77,158,152.77Z" transform="translate(-4.97 -9.85)"/><path d="M54,277.12a14.22,14.22,0,0,0,4.41-27.73,51.87,51.87,0,0,1-16-9.71c-8.74-8.05-11-17.36-7.09-29.3,3.83-11.71,10.93-17.86,22.34-19.35A51.15,51.15,0,0,1,77,192.61a14.22,14.22,0,0,0,8.84-27,78.83,78.83,0,0,0-30.69-2.89c-22.88,2.56-39.54,16.36-46.9,38.85S6.12,245,23.07,260.6a78.63,78.63,0,0,0,26.46,15.81A14.24,14.24,0,0,0,54,277.12Z" transform="translate(-4.97 -9.85)"/><path d="M350,154.43a14.21,14.21,0,0,0-13.41,15,38.87,38.87,0,0,1-4.24,16.77c-6.27,12.22-18.84,19.7-37.37,22.24a41.44,41.44,0,0,1-5.57.39c-27.63,0-39.31-29.55-39.8-30.82a14.22,14.22,0,1,0-26.65,9.91,89.31,89.31,0,0,0,16.75,26.64c13.65,15,30.57,22.73,49.36,22.73a72.53,72.53,0,0,0,9.77-.68c35.2-4.82,51.41-23,58.81-37.43a65.87,65.87,0,0,0,7.33-31.31A14.22,14.22,0,0,0,350,154.43Z" transform="translate(-4.97 -9.85)"/><rect x="491.55" y="323.62" width="91.94" height="36.78" rx="9.19"/><rect x="507.55" y="223.15" width="147.1" height="58.84" rx="14.71" transform="translate(181.78 738.65) rotate(-75)"/><rect x="700.56" y="305.56" width="36.78" height="91.94" rx="9.19" transform="translate(356.06 1057.47) rotate(-89.49)"/><rect x="651.8" y="178.35" width="58.84" height="147.1" rx="14.71" transform="matrix(0.97, -0.25, 0.25, 0.97, -46.32, 168.6)"/><path d="M713.51,90.76a80.91,80.91,0,1,0-80.9,80.9A80.9,80.9,0,0,0,713.51,90.76Zm-76.74,47.9a14.89,14.89,0,1,1-11-17.93A14.89,14.89,0,0,1,636.77,138.66Zm20.65-86.93c-6.88,29-30,61.75-30,61.75s-5.88-39.66,1-68.63a14.89,14.89,0,1,1,29,6.88Z" transform="translate(-4.97 -9.85)"/><path d="M540.63,199.74a97.33,97.33,0,0,0,18.29-29.1,15.53,15.53,0,0,0-29.11-10.82c-.53,1.39-13.29,33.65-43.47,33.66a44.47,44.47,0,0,1-6.08-.43c-20.23-2.77-34-10.94-40.82-24.29a42.26,42.26,0,0,1-4.62-18.31,15.53,15.53,0,1,0-31-1.71,71.85,71.85,0,0,0,8,34.2c8.08,15.75,25.78,35.62,64.23,40.88a79.29,79.29,0,0,0,10.66.74C507.24,224.56,525.72,216.1,540.63,199.74Z" transform="translate(-4.97 -9.85)"/><path d="M811.53,108.54a17.5,17.5,0,0,0-24.27-4.85l-81,54a17.5,17.5,0,1,0,19.41,29.12l81-54A17.5,17.5,0,0,0,811.53,108.54Z" transform="translate(-4.97 -9.85)"/><path d="M310.62,142.4a8.78,8.78,0,0,0,10.89,6L439.63,114.1a8.8,8.8,0,0,0,6-10.89l-14.7-50.62a8.79,8.79,0,0,0-10.89-6L301.91,80.89a8.77,8.77,0,0,0-6,10.88Zm45.15-61.14a9.88,9.88,0,0,1,8.05,1.15l4.6,15.86a10,10,0,0,0-1.21.25c-3.28,1-5.31,3.85-4.55,6.47s4,4,7.31,3,5.31-3.85,4.55-6.47L368.57,81a9.88,9.88,0,0,1,6.18-5.28L384.24,73l5.51,19a19.76,19.76,0,0,1-38,11l-5.51-19Z" transform="translate(-4.97 -9.85)"/></svg>