<?xml version="1.0" encoding="UTF-8" standalone="no"?>
<svg
   xmlns:dc="http://purl.org/dc/elements/1.1/"
   xmlns:cc="http://creativecommons.org/ns#"
   xmlns:rdf="http://www.w3.org/1999/02/22-rdf-syntax-ns#"
   xmlns:svg="http://www.w3.org/2000/svg"
   xmlns="http://www.w3.org/2000/svg"
   xmlns:sodipodi="http://sodipodi.sourceforge.net/DTD/sodipodi-0.dtd"
   xmlns:inkscape="http://www.inkscape.org/namespaces/inkscape"
   viewBox="0 0 432 432.00003"
   version="1.1"
   id="svg3799"
   sodipodi:docname="TastefulIconTongueVers2-02.svg"
   width="432"
   height="432.00003"
   inkscape:version="0.92.4 5da689c313, 2019-01-14">
  <metadata
     id="metadata3803">
    <rdf:RDF>
      <cc:Work
         rdf:about="">
        <dc:format>image/svg+xml</dc:format>
        <dc:type
           rdf:resource="http://purl.org/dc/dcmitype/StillImage" />
      </cc:Work>
    </rdf:RDF>
  </metadata>
  <sodipodi:namedview
     pagecolor="#ffffff"
     bordercolor="#666666"
     borderopacity="1"
     objecttolerance="10"
     gridtolerance="10"
     guidetolerance="10"
     inkscape:pageopacity="0"
     inkscape:pageshadow="2"
     inkscape:window-width="976"
     inkscape:window-height="486"
     id="namedview3801"
     showgrid="false"
     inkscape:zoom="0.36742424"
     inkscape:cx="211"
     inkscape:cy="216"
     inkscape:window-x="12"
     inkscape:window-y="578"
     inkscape:window-maximized="1"
     inkscape:current-layer="svg3799" />
  <defs
     id="defs3793">
    <style
       id="style3786">.a{fill:url(#a);}</style>
    <linearGradient
       id="a"
       x1="95"
       y1="396"
       x2="527"
       y2="396"
       gradientUnits="userSpaceOnUse"
       gradientTransform="translate(-95,-179.99996)">
      <stop
         offset="0"
         stop-color="#f05252"
         id="stop3788" />
      <stop
         offset="1"
         stop-color="#5d479d"
         id="stop3790" />
    </linearGradient>
  </defs>
  <title
     id="title3795">TastefulIconTongueVers2</title>
  <path
     class="a"
     d="M 324,4.2268009e-5 A 107.72,107.72 0 0 0 243,36.600042 V 270.00004 c 0,29.82 -30.22,54 -67.5,54 -37.28,0 -67.5,-24.18 -67.5,-54 0,-29.82 30.22,-54 67.5,-54 a 84.05,84.05 0 0 1 13.5,1.08 V 36.600042 A 107.72,107.72 0 0 0 108,4.2268009e-5 H 0 V 216.00004 c 0,119.29 96.71,216 216,216 119.29,0 216,-96.71 216,-216 V 4.2268009e-5 Z"
     id="path3797"
     inkscape:connector-curvature="0"
     style="fill:url(#a)" />
</svg>
