<?xml version="1.0" standalone="no"?>
<!DOCTYPE svg PUBLIC "-//W3C//DTD SVG 20010904//EN"
 "http://www.w3.org/TR/2001/REC-SVG-20010904/DTD/svg10.dtd">
<svg version="1.0" xmlns="http://www.w3.org/2000/svg"
 width="700.000000pt" height="700.000000pt" viewBox="0 0 700.000000 700.000000"
 preserveAspectRatio="xMidYMid meet">
<metadata>
Created by potrace 1.11, written by Peter Selinger 2001-2013
</metadata>
<g transform="translate(0.000000,700.000000) scale(0.100000,-0.100000)"
fill="#000000" stroke="none">
<path d="M3 5108 c2 -1041 6 -1906 9 -1923 3 -16 9 -59 13 -95 15 -133 26
-202 60 -360 21 -96 91 -339 114 -395 5 -11 30 -75 55 -142 54 -140 181 -394
249 -501 26 -40 47 -76 47 -81 0 -5 3 -11 7 -13 5 -2 34 -41 65 -88 52 -78
214 -285 263 -336 198 -208 293 -297 445 -419 92 -74 370 -265 386 -265 4 0
15 -6 23 -14 27 -23 260 -140 392 -196 281 -120 597 -208 874 -245 22 -2 56
-7 75 -10 186 -26 698 -27 838 0 16 3 104 15 147 20 179 23 499 113 735 206
126 51 382 175 458 223 23 14 44 26 47 26 3 0 11 5 18 10 7 6 62 43 122 83
253 168 492 376 678 592 33 39 63 72 67 75 17 13 181 236 245 335 220 337 406
778 481 1140 16 79 54 301 59 350 4 33 9 71 12 85 4 14 8 881 10 1928 l4 1903
-948 -2 c-929 -1 -964 -2 -1146 -33 -137 -22 -388 -115 -512 -189 -100 -60
-195 -126 -270 -189 -88 -73 -184 -169 -186 -185 0 -4 -1 -869 -1 -1921 -1
-1936 -2 -1971 -36 -2077 -82 -254 -310 -468 -622 -583 -123 -45 -256 -66
-420 -67 -164 0 -201 3 -319 30 -320 74 -590 269 -713 518 -128 257 -94 556
90 787 101 128 294 270 419 310 21 7 43 16 48 20 6 4 24 11 40 15 17 5 35 9
40 11 37 11 112 28 180 39 82 14 382 14 404 1 6 -4 11 -1 12 6 4 72 1 2891 -4
2909 -7 28 -118 138 -222 221 -206 162 -470 287 -719 338 -50 10 -107 22 -126
26 -19 4 -475 9 -1013 11 l-978 4 4 -1893z"/>
</g>
</svg>
