<svg version="1" xmlns="http://www.w3.org/2000/svg" width="933.333" height="933.333" viewBox="0 0 700.000000 700.000000"><path d="M.3 189.2c.2 104.1.6 190.6.9 192.3.3 1.6.9 5.9 1.3 9.5 1.5 13.3 2.6 20.2 6 36 2.1 9.6 9.1 33.9 11.4 39.5.5 1.1 3 7.5 5.5 14.2 5.4 14 18.1 39.4 24.9 50.1 2.6 4 4.7 7.6 4.7 8.1s.3 1.1.7 1.3c.5.2 3.4 4.1 6.5 8.8 5.2 7.8 21.4 28.5 26.3 33.6 19.8 20.8 29.3 29.7 44.5 41.9 9.2 7.4 37 26.5 38.6 26.5.4 0 1.5.6 2.3 1.4 2.7 2.3 26 14 39.2 19.6 28.1 12 59.7 20.8 87.4 24.5 2.2.2 5.6.7 7.5 1 18.6 2.6 69.8 2.7 83.8 0 1.6-.3 10.4-1.5 14.7-2 17.9-2.3 49.9-11.3 73.5-20.6 12.6-5.1 38.2-17.5 45.8-22.3 2.3-1.4 4.4-2.6 4.7-2.6.3 0 1.1-.5 1.8-1 .7-.6 6.2-4.3 12.2-8.3 25.3-16.8 49.2-37.6 67.8-59.2 3.3-3.9 6.3-7.2 6.7-7.5 1.7-1.3 18.1-23.6 24.5-33.5 22-33.7 40.6-77.8 48.1-114 1.6-7.9 5.4-30.1 5.9-35 .4-3.3.9-7.1 1.2-8.5.4-1.4.8-88.1 1-192.8l.4-190.3-94.8.2c-92.9.1-96.4.2-114.6 3.3-13.7 2.2-38.8 11.5-51.2 18.9-10 6-19.5 12.6-27 18.9-8.8 7.3-18.4 16.9-18.6 18.5 0 .4-.1 86.9-.1 192.1-.1 193.6-.2 197.1-3.6 207.7-8.2 25.4-31 46.8-62.2 58.3-12.3 4.5-25.6 6.6-42 6.7-16.4 0-20.1-.3-31.9-3-32-7.4-59-26.9-71.3-51.8-12.8-25.7-9.4-55.6 9-78.7 10.1-12.8 29.4-27 41.9-31 2.1-.7 4.3-1.6 4.8-2 .6-.4 2.4-1.1 4-1.5 1.7-.5 3.5-.9 4-1.1 3.7-1.1 11.2-2.8 18-3.9 8.2-1.4 38.2-1.4 40.4-.1.6.4 1.1.1 1.2-.6.4-7.2.1-289.1-.4-290.9-.7-2.8-11.8-13.8-22.2-22.1-20.6-16.2-47-28.7-71.9-33.8-5-1-10.7-2.2-12.6-2.6C197.1 1 151.5.5 97.7.3L-.1-.1l.4 189.3z"/></svg>